<svg xmlns="http://www.w3.org/2000/svg" version="1.1" xmlns:xlink="http://www.w3.org/1999/xlink" xmlns:svgjs="http://svgjs.dev/svgjs" width="1000" height="136" viewBox="0 0 1000 136"><g transform="matrix(1,0,0,1,-0.6060359453913975,-0.5044043211437952)"><svg viewBox="0 0 396 54" data-background-color="#ffffff" preserveAspectRatio="xMidYMid meet" height="136" width="1000" xmlns="http://www.w3.org/2000/svg" xmlns:xlink="http://www.w3.org/1999/xlink"><g id="tight-bounds" transform="matrix(1,0,0,1,0.239990234375,0.2002781863365044)"><svg viewBox="0 0 395.52 53.599443627326984" height="53.599443627326984" width="395.52"><rect width="395.52001953125" height="53.59944152832031" fill="url(#d7c7985f-a749-4d8d-96e4-1d36dff10efd)" mask="url(&quot;#f042e89f-912e-46fa-b466-e02a958093c2&quot;)" data-fill-palette-color="accent"></rect><g><svg viewBox="0 0 593.8997123305342 80.48314662051521" height="53.599443627326984" width="395.52"><g transform="matrix(1,0,0,1,198.37971233053412,11.123213462024896)"><svg viewBox="0 0 395.52 58.23671969646542" height="58.23671969646542" width="395.52"><g id="textblocktransform"><svg viewBox="0 0 395.52 58.23671969646542" height="58.23671969646542" width="395.52" id="textblock"><g><svg viewBox="0 0 395.52 58.23671969646542" height="58.23671969646542" width="395.52"><g transform="matrix(1,0,0,1,0,0)"><svg width="395.52" viewBox="2.809999942779541 -41.11000061035156 366.75 54" height="58.23671969646542" data-palette-color="#99627a"><g class="undefined-text-0" data-fill-palette-color="primary" id="text-0"><path d="M2.81-19.43L2.81-19.43Q2.81-23.46 4.32-26.97 5.83-30.47 8.74-33.06 11.65-35.64 15.88-37.13 20.12-38.62 25.59-38.62L25.59-38.62Q27.56-38.62 29.55-38.42 31.54-38.21 33.48-37.77 35.42-37.33 37.27-36.66 39.11-35.99 40.77-35.06L40.77-35.06 37.21-29.2Q36.21-29.79 34.94-30.26 33.67-30.74 32.21-31.07 30.76-31.4 29.21-31.57 27.66-31.74 26.1-31.74L26.1-31.74Q22.49-31.74 19.65-30.82 16.82-29.91 14.87-28.26 12.92-26.61 11.89-24.32 10.86-22.02 10.86-19.29L10.86-19.29Q10.86-16.46 11.94-14.09 13.01-11.72 14.99-10.01 16.97-8.3 19.78-7.34 22.58-6.37 26.05-6.37L26.05-6.37Q28.81-6.37 31.1-6.99 33.4-7.62 35.11-8.76 36.82-9.91 37.89-11.54 38.96-13.16 39.31-15.19L39.31-15.19 25.98-15.19 25.98-21.56 46.26-21.56 46.26-21.53 46.29-21.56Q46.9-18.63 46.67-15.86 46.44-13.09 45.4-10.63 44.36-8.18 42.55-6.13 40.75-4.08 38.23-2.6 35.72-1.12 32.52-0.31 29.32 0.51 25.51 0.51L25.51 0.51Q20.19 0.51 15.98-1.05 11.77-2.61 8.84-5.32 5.91-8.03 4.36-11.67 2.81-15.31 2.81-19.43ZM53.15-14.5L53.15-14.5Q53.15-17.43 54.34-20.1 55.54-22.78 57.79-24.83 60.03-26.88 63.29-28.1 66.55-29.32 70.7-29.32L70.7-29.32Q74.83-29.32 78.13-28.09 81.44-26.86 83.75-24.71 86.06-22.56 87.29-19.65 88.52-16.75 88.52-13.43L88.52-13.43Q88.52-13.01 88.51-12.54 88.5-12.06 88.45-11.67L88.45-11.67 61.2-11.67Q61.67-10.38 62.71-9.3 63.74-8.23 65.31-7.45 66.87-6.67 68.92-6.24 70.97-5.81 73.46-5.81L73.46-5.81Q75.95-5.81 78.42-6.34 80.88-6.86 83.13-7.67L83.13-7.67 85.57-2.15Q84.15-1.49 82.7-0.99 81.25-0.49 79.67-0.16 78.1 0.17 76.38 0.34 74.66 0.51 72.75 0.51L72.75 0.51Q67.89 0.51 64.23-0.66 60.57-1.83 58.1-3.86 55.64-5.88 54.39-8.62 53.15-11.35 53.15-14.5ZM61.2-17.31L80.86-17.31Q80.47-18.51 79.65-19.54 78.83-20.58 77.61-21.35 76.39-22.12 74.78-22.56 73.17-23 71.24-23L71.24-23Q69.19-23 67.5-22.53 65.82-22.07 64.55-21.29 63.28-20.51 62.44-19.48 61.59-18.46 61.2-17.31L61.2-17.31ZM96.48 0L96.48-28.81 103.71-28.81 103.71-26.37Q106.42-28.03 108.99-28.67 111.57-29.32 114.03-29.32L114.03-29.32Q117.48-29.32 120.36-28.22 123.24-27.12 125.29-24.9L125.29-24.9Q126.87-26.12 128.41-26.97 129.95-27.81 131.49-28.33 133.03-28.86 134.61-29.09 136.2-29.32 137.89-29.32L137.89-29.32Q141.43-29.32 144.31-28.36 147.19-27.39 149.23-25.49 151.26-23.58 152.38-20.74 153.49-17.9 153.49-14.16L153.49-14.16 153.49 0 146.28 0 146.28-12.99Q146.28-15.36 145.61-17.22 144.94-19.09 143.73-20.37 142.52-21.66 140.85-22.33 139.18-23 137.18-23L137.18-23Q136.08-23 134.93-22.79 133.78-22.58 132.7-22.14 131.61-21.7 130.66-21.03 129.71-20.36 129-19.46L129-19.46 129 0 121.8 0 121.8-12.99Q121.8-15.36 121.13-17.22 120.45-19.09 119.25-20.37 118.04-21.66 116.34-22.33 114.64-23 112.62-23L112.62-23Q111.37-23 110.11-22.74 108.86-22.49 107.7-22.02 106.54-21.56 105.52-20.9 104.51-20.24 103.71-19.41L103.71-19.41 103.71 0 96.48 0ZM163.42 0L163.42-38.16 171.16-38.16 194.94-25.71 194.94-38.16 202.68-38.16 202.68 0 194.94 0 194.94-17.5 171.16-29.88 171.16 0 163.42 0ZM213.47 0L213.47-38.16 247.6-38.16 247.6-31.37 221.21-31.37 221.21-21.39 243.62-21.39 243.62-15.01 221.21-15.01 221.21 0 213.47 0ZM266.56 0L266.56-31.37 252.48-31.37 252.48-38.16 288.39-38.16 288.39-31.37 274.3-31.37 274.3 0 266.56 0ZM299.55-32.74L299.55-32.74Q298.47-32.74 297.6-33.04 296.74-33.35 296.13-33.87 295.52-34.4 295.19-35.1 294.86-35.79 294.86-36.57L294.86-36.57Q294.86-37.38 295.19-38.07 295.52-38.77 296.13-39.28 296.74-39.79 297.6-40.1 298.47-40.41 299.55-40.41L299.55-40.41Q300.64-40.41 301.51-40.1 302.38-39.79 302.99-39.28 303.6-38.77 303.93-38.07 304.26-37.38 304.26-36.57L304.26-36.57Q304.26-35.79 303.93-35.1 303.6-34.4 302.99-33.87 302.38-33.35 301.51-33.04 300.64-32.74 299.55-32.74ZM295.93 0L295.93-28.81 303.16-28.81 303.16 0 295.93 0ZM315.56 0L315.56-23.39 310.63-23.39 310.63-28.81 315.56-28.81Q315.56-31.74 316.39-34.02 317.22-36.3 318.79-37.88 320.37-39.45 322.63-40.28 324.88-41.11 327.72-41.11L327.72-41.11Q329.69-41.11 331.6-40.73 333.5-40.36 334.97-39.65L334.97-39.65 332.4-33.57Q331.82-33.91 330.76-34.2 329.69-34.5 328.42-34.5L328.42-34.5Q325.93-34.5 324.41-33.09 322.88-31.69 322.79-28.81L322.79-28.81 331.89-28.81 331.89-23.39 322.79-23.39 322.79 0 315.56 0ZM338.21 9.72L340.9 3.61Q342.02 4.35 343.34 4.91 344.66 5.47 346.09 5.83 347.51 6.2 349 6.38 350.49 6.57 351.96 6.57L351.96 6.57Q356.94 6.57 359.64 4.43 362.33 2.29 362.33-1.98L362.33-1.98 362.33-2.95Q361.38-2.29 360.2-1.75 359.01-1.2 357.66-0.81 356.3-0.42 354.8-0.21 353.3 0 351.76 0L351.76 0Q348.47 0 345.87-0.96 343.27-1.93 341.47-3.8 339.68-5.66 338.73-8.4 337.77-11.13 337.77-14.65L337.77-14.65 337.77-28.81 344.98-28.81 344.98-16.65Q344.98-11.43 346.96-8.95 348.95-6.47 353.25-6.47L353.25-6.47Q356.28-6.47 358.61-7.53 360.94-8.59 362.33-10.25L362.33-10.25 362.33-28.81 369.56-28.81 369.56-3.3Q369.56 0.83 368.39 3.87 367.22 6.91 364.98 8.91 362.75 10.91 359.5 11.9 356.25 12.89 352.13 12.89L352.13 12.89Q348.1 12.89 344.61 12.04 341.12 11.18 338.21 9.72L338.21 9.72Z" fill="#99627a" data-fill-palette-color="primary"></path></g></svg></g></svg></g></svg></g></svg></g><g><svg viewBox="0 0 184.63142049147135 80.48314662051521" height="80.48314662051521" width="184.63142049147135"><g><svg xmlns="http://www.w3.org/2000/svg" xmlns:xlink="http://www.w3.org/1999/xlink" version="1.1" x="0" y="0" viewBox="10 42.00299835205078 80 34.87300109863281" enable-background="new 0 0 100 100" xml:space="preserve" width="184.63142049147135" height="80.48314662051521" class="icon-icon-0" data-fill-palette-color="accent" id="icon-0"></svg></g></svg></g></svg></g><defs></defs><mask id="f042e89f-912e-46fa-b466-e02a958093c2"><g id="SvgjsG1062"><svg viewBox="0 0 395.52 53.599443627326984" height="53.599443627326984" width="395.52"><g><svg viewBox="0 0 593.8997123305342 80.48314662051521" height="53.599443627326984" width="395.52"><g transform="matrix(1,0,0,1,198.37971233053412,11.123213462024896)"><svg viewBox="0 0 395.52 58.23671969646542" height="58.23671969646542" width="395.52"><g id="SvgjsG1061"><svg viewBox="0 0 395.52 58.23671969646542" height="58.23671969646542" width="395.52" id="SvgjsSvg1060"><g><svg viewBox="0 0 395.52 58.23671969646542" height="58.23671969646542" width="395.52"><g transform="matrix(1,0,0,1,0,0)"><svg width="395.52" viewBox="2.809999942779541 -41.11000061035156 366.75 54" height="58.23671969646542" data-palette-color="#99627a"><g class="undefined-text-0" data-fill-palette-color="primary" id="SvgjsG1059"></g></svg></g></svg></g></svg></g></svg></g><g><svg viewBox="0 0 184.63142049147135 80.48314662051521" height="80.48314662051521" width="184.63142049147135"><g><svg xmlns="http://www.w3.org/2000/svg" xmlns:xlink="http://www.w3.org/1999/xlink" version="1.1" x="0" y="0" viewBox="10 42.00299835205078 80 34.87300109863281" enable-background="new 0 0 100 100" xml:space="preserve" width="184.63142049147135" height="80.48314662051521" class="icon-icon-0" data-fill-palette-color="accent" id="SvgjsSvg1058"><g fill="white"><g fill="white"></g></g><g fill="white"><g fill="white"><rect x="10" y="53.323" fill="white" width="11.238" height="1.202"></rect></g></g><g fill="white"><g fill="white"><rect x="78.762" y="53.323" fill="white" width="11.238" height="1.202"></rect></g></g><g fill="white"><g fill="white"></g></g><g fill="white"><g fill="white"></g></g><g fill="white"></g><g fill="white"><g fill="white"></g></g><g fill="white"></g><g fill="white"><polygon points="73.146,53.021 62.79,42.667 58.994,53.021  " fill="white"></polygon></g><g fill="white"><polygon points="37.823,42.48 27.282,53.021 41.459,53.021  " fill="white"></polygon></g><g fill="white"><polygon points="61.109,42.003 50.533,42.003 57.452,51.98  " fill="white"></polygon></g><g fill="white"><polygon points="49.895,42.003 39.568,42.003 42.999,51.945  " fill="white"></polygon></g><g fill="white"><path d="M49.331 76.876L27.282 54.828h14.795l7.42 22.048H49.331z" fill="white"></path></g><g fill="white"><path d="M58.352 54.828h14.795L51.098 76.876h-0.166L58.352 54.828z" fill="white"></path></g><g fill="white"><polygon points="44.451,53.021 55.979,53.021 50.214,44.711  " fill="white"></polygon></g><g fill="white"><polygon points="50.214,73.341 56.445,54.828 43.981,54.828  " fill="white"></polygon></g></svg></g></svg></g></svg></g><defs><mask></mask></defs></svg></g></mask><linearGradient x1="0" x2="1" y1="0.548" y2="0.55" id="d7c7985f-a749-4d8d-96e4-1d36dff10efd"><stop stop-color="#ff6cab" offset="0"></stop><stop stop-color="#7366ff" offset="1"></stop></linearGradient></svg><rect width="395.52" height="53.599443627326984" fill="none" stroke="none" visibility="hidden"></rect></g></svg></g></svg>